<?xml version="1.0" encoding="UTF-8" standalone="no"?>
<svg
   xmlns:dc="http://purl.org/dc/elements/1.1/"
   xmlns:cc="http://creativecommons.org/ns#"
   xmlns:rdf="http://www.w3.org/1999/02/22-rdf-syntax-ns#"
   xmlns:svg="http://www.w3.org/2000/svg"
   xmlns="http://www.w3.org/2000/svg"
   xmlns:sodipodi="http://sodipodi.sourceforge.net/DTD/sodipodi-0.dtd"
   xmlns:inkscape="http://www.inkscape.org/namespaces/inkscape"
   width="400"
   height="360"
   id="svg3039"
   version="1.1"
   inkscape:version="0.48.4 r9939"
   sodipodi:docname="Necker_cube.svg">
  <metadata
     id="metadata3053">
    <rdf:RDF>
      <cc:Work
         rdf:about="">
        <dc:format>image/svg+xml</dc:format>
        <dc:type
           rdf:resource="http://purl.org/dc/dcmitype/StillImage" />
      </cc:Work>
    </rdf:RDF>
  </metadata>
  <defs
     id="defs3051" />
  <sodipodi:namedview
     pagecolor="#ffffff"
     bordercolor="#666666"
     borderopacity="1"
     objecttolerance="10"
     gridtolerance="10"
     guidetolerance="10"
     inkscape:pageopacity="0"
     inkscape:pageshadow="2"
     inkscape:window-width="1615"
     inkscape:window-height="1026"
     id="namedview3049"
     showgrid="false"
     inkscape:zoom="2.4416667"
     inkscape:cx="200.03314"
     inkscape:cy="164.85691"
     inkscape:window-x="65"
     inkscape:window-y="24"
     inkscape:window-maximized="1"
     inkscape:current-layer="svg3039" />
  <g
     fill="none"
     stroke="#000"
     stroke-width="3"
     id="g3041">
    <rect
       width="240"
       height="240"
       x="20"
       y="90"
       id="rect3043" />
    <rect
       width="240"
       height="240"
       x="140"
       y="30"
       id="rect3045" />
    <path
       d="M20,90 l120,-60 M260,90 l120,-60 M20,330 l120,-60 M260,330 l120,-60"
       id="path3047" />
  </g>
  <path
     style="fill:none;stroke:#000000;stroke-width:1px;stroke-linecap:butt;stroke-linejoin:miter;stroke-opacity:1"
     d="m 20.068259,89.692833 238.361771,0"
     id="path3055"
     inkscape:connector-curvature="0" />
  <path
     style="fill:none;stroke:#f10000;stroke-width:2;stroke-linecap:butt;stroke-linejoin:miter;stroke-opacity:1;stroke-miterlimit:4;stroke-dasharray:none"
     d="m 20.477816,90.511945 c 0,0 -34.816876,114.044505 -0.819116,239.590445"
     id="path3057"
     inkscape:connector-curvature="0"
     sodipodi:nodetypes="cc" />
  <path
     style="fill:none;stroke:#f10000;stroke-width:2;stroke-linecap:butt;stroke-linejoin:miter;stroke-miterlimit:4;stroke-opacity:1;stroke-dasharray:none"
     d="m 260.14657,90.307164 c 0,0 -34.81688,114.044516 -0.81912,239.590456"
     id="path3057-4"
     inkscape:connector-curvature="0"
     sodipodi:nodetypes="cc" />
  <path
     style="fill:none;stroke:#f10000;stroke-width:2;stroke-linecap:butt;stroke-linejoin:miter;stroke-miterlimit:4;stroke-opacity:1;stroke-dasharray:none"
     d="m 379.32746,30.511937 c 0,0 -34.81688,114.044523 -0.81912,239.590463"
     id="path3057-4-3"
     inkscape:connector-curvature="0"
     sodipodi:nodetypes="cc" />
  <path
     style="fill:none;stroke:#f10000;stroke-width:2;stroke-linecap:butt;stroke-linejoin:miter;stroke-miterlimit:4;stroke-opacity:1;stroke-dasharray:none"
     d="m 139.73702,29.283268 c 0,0 -34.81688,114.044522 -0.81912,239.590462"
     id="path3057-4-3-3"
     inkscape:connector-curvature="0"
     sodipodi:nodetypes="cc" />
  <path
     sodipodi:type="arc"
     style="fill:none;stroke:#f10000;stroke-width:2;stroke-miterlimit:4;stroke-opacity:1;stroke-dasharray:none;stroke-dashoffset:0"
     id="path3883"
     sodipodi:cx="18.225256"
     sodipodi:cy="91.740616"
     sodipodi:rx="7.1672354"
     sodipodi:ry="6.9624572"
     d="m 25.392491,91.740616 a 7.1672354,6.9624572 0 1 1 -14.33447,0 7.1672354,6.9624572 0 1 1 14.33447,0 z"
     transform="translate(2.0477816,-0.81911263)" />
  <path
     sodipodi:type="arc"
     style="fill:none;stroke:#f10000;stroke-width:2;stroke-miterlimit:4;stroke-opacity:1;stroke-dasharray:none;stroke-dashoffset:0"
     id="path3883-2"
     sodipodi:cx="18.225256"
     sodipodi:cy="91.740616"
     sodipodi:rx="7.1672354"
     sodipodi:ry="6.9624572"
     d="m 25.392491,91.740616 a 7.1672354,6.9624572 0 1 1 -14.33447,0 7.1672354,6.9624572 0 1 1 14.33447,0 z"
     transform="translate(1.0238908,237.54266)" />
  <path
     sodipodi:type="arc"
     style="fill:none;stroke:#f10000;stroke-width:2;stroke-miterlimit:4;stroke-opacity:1;stroke-dasharray:none;stroke-dashoffset:0"
     id="path3883-6"
     sodipodi:cx="18.225256"
     sodipodi:cy="91.740616"
     sodipodi:rx="7.1672354"
     sodipodi:ry="6.9624572"
     d="m 25.392491,91.740616 a 7.1672354,6.9624572 0 1 1 -14.33447,0 7.1672354,6.9624572 0 1 1 14.33447,0 z"
     transform="translate(241.843,-0.40955782)" />
  <path
     sodipodi:type="arc"
     style="fill:none;stroke:#f10000;stroke-width:2;stroke-miterlimit:4;stroke-opacity:1;stroke-dasharray:none;stroke-dashoffset:0"
     id="path3883-1"
     sodipodi:cx="18.225256"
     sodipodi:cy="91.740616"
     sodipodi:rx="7.1672354"
     sodipodi:ry="6.9624572"
     d="m 25.392491,91.740616 a 7.1672354,6.9624572 0 1 1 -14.33447,0 7.1672354,6.9624572 0 1 1 14.33447,0 z"
     transform="translate(121.843,-61.433449)" />
  <path
     sodipodi:type="arc"
     style="fill:none;stroke:#f10000;stroke-width:2;stroke-miterlimit:4;stroke-opacity:1;stroke-dasharray:none;stroke-dashoffset:0"
     id="path3883-0"
     sodipodi:cx="18.225256"
     sodipodi:cy="91.740616"
     sodipodi:rx="7.1672354"
     sodipodi:ry="6.9624572"
     d="m 25.392491,91.740616 a 7.1672354,6.9624572 0 1 1 -14.33447,0 7.1672354,6.9624572 0 1 1 14.33447,0 z"
     transform="translate(360.61434,-60.20478)" />
  <path
     sodipodi:type="arc"
     style="fill:none;stroke:#f10000;stroke-width:2;stroke-miterlimit:4;stroke-opacity:1;stroke-dasharray:none;stroke-dashoffset:0"
     id="path3883-5"
     sodipodi:cx="18.225256"
     sodipodi:cy="91.740616"
     sodipodi:rx="7.1672354"
     sodipodi:ry="6.9624572"
     d="m 25.392491,91.740616 a 7.1672354,6.9624572 0 1 1 -14.33447,0 7.1672354,6.9624572 0 1 1 14.33447,0 z"
     transform="translate(122.25256,177.33788)" />
  <path
     sodipodi:type="arc"
     style="fill:none;stroke:#f10000;stroke-width:2;stroke-miterlimit:4;stroke-opacity:1;stroke-dasharray:none;stroke-dashoffset:0"
     id="path3883-08"
     sodipodi:cx="18.225256"
     sodipodi:cy="91.740616"
     sodipodi:rx="7.1672354"
     sodipodi:ry="6.9624572"
     d="m 25.392491,91.740616 a 7.1672354,6.9624572 0 1 1 -14.33447,0 7.1672354,6.9624572 0 1 1 14.33447,0 z"
     transform="translate(242.25256,237.95222)" />
  <path
     sodipodi:type="arc"
     style="fill:none;stroke:#f10000;stroke-width:2;stroke-miterlimit:4;stroke-opacity:1;stroke-dasharray:none;stroke-dashoffset:0"
     id="path3883-20"
     sodipodi:cx="18.225256"
     sodipodi:cy="91.740616"
     sodipodi:rx="7.1672354"
     sodipodi:ry="6.9624572"
     d="m 25.392491,91.740616 a 7.1672354,6.9624572 0 1 1 -14.33447,0 7.1672354,6.9624572 0 1 1 14.33447,0 z"
     transform="translate(360.61433,179.38566)" />
</svg>
